#!OML:ASF X:\für Bonn\!DataBase\2005_08_10_Bjorn_Final\c3d\bjorn.ASF
:FULLY-SPECIFIED
:DEGREES
136
root 1.44424 18.4111 2.78372 -175.506 -5.47436 -180.907
lowerback 4.06022 0.430912 3.98317
upperback 6.55617 0.11661 -0.337078
thorax 4.54026 0.0388483 -2.59628
lowerneck -19.949 -3.38428 0.583197
upperneck 5.51554 -4.72716 -1.28118
head 4.78136 -2.48248 -0.956235
rclavicle -9.34288e-015 1.59028e-014
rhumerus 71.9231 0.955658 -71.9393
rradius 12.2632
rwrist 41.0148
rhand -12.4094 11.3998
rfingers 7.12502
rthumb 13.6624 -18.1318
lclavicle -9.34288e-015 1.59028e-014
lhumerus 74.9503 -10.4089 66.5189
lradius 11.4859
lwrist -36.7998
lhand -12.2981 -3.36329
lfingers 7.12502
lthumb 13.7697 26.161
rfemur -24.5335 -7.44021 18.0078
rtibia 49.2448
rfoot -27.145 8.74871
rtoes -21.0337
lfemur -26.6005 4.51148 -19.2931
ltibia 51.5274
lfoot -20.538 -7.10627
ltoes -14.0496
137
root 1.44921 18.5264 2.74303 -175.325 -5.19659 -180.807
lowerback 3.40168 0.515513 4.0582
upperback 6.26633 0.264557 -0.372427
thorax 4.61716 0.137773 -2.67153
lowerneck -19.4853 -3.42171 0.560717
upperneck 5.6705 -4.74687 -1.26697
head 4.76018 -2.48059 -0.942239
rclavicle 5.66536e-015 -1.07344e-014
rhumerus 71.5132 1.02997 -72.4036
rradius 12.1213
rwrist 41.1723
rhand -11.8162 11.4148
rfingers 7.12502
rthumb 14.2341 -18.0774
lclavicle 5.66536e-015 -1.07344e-014
lhumerus 74.5348 -10.4238 67.0101
lradius 11.3708
lwrist -37.7065
lhand -11.9979 -3.41286
lfingers 7.12502
lthumb 14.059 26.0916
rfemur -23.4206 -7.5415 18.1396
rtibia 46.9655
rfoot -26.4419 9.18026
rtoes -20.1844
lfemur -25.341 4.62501 -19.1234
ltibia 49.2018
lfoot -20.2162 -7.26457
ltoes -13.4522
138
root 1.45412 18.6268 2.70276 -175.162 -4.90671 -180.708
lowerback 2.73564 0.598026 4.1232
upperback 6.01281 0.399707 -0.39641
thorax 4.7372 0.227635 -2.72765
lowerneck -19.1653 -3.45492 0.511439
upperneck 5.89985 -4.75699 -1.25689
head 4.78473 -2.47587 -0.928555
rclavicle -3.43897e-014 -2.78299e-015
rhumerus 71.2089 1.16575 -72.5684
rradius 11.9306
rwrist 41.0916
rhand -11.2497 11.3859
rfingers 7.12502
rthumb 14.7799 -18.0671
lclavicle -3.43897e-014 -2.78299e-015
lhumerus 74.1543 -10.3627 67.4865
lradius 11.2536
lwrist -38.741
lhand -11.6796 -3.45851
lfingers 7.12502
lthumb 14.3658 26.0244
rfemur -22.3618 -7.65542 18.2587
rtibia 44.8254
rfoot -25.7902 9.64077
rtoes -19.36
lfemur -24.1276 4.69761 -18.9567
ltibia 46.9847
lfoot -19.9329 -7.33842
ltoes -13.0215
139
root 1.45876 18.7192 2.66332 -175.039 -4.60254 -180.588
lowerback 2.10796 0.688273 4.22982
upperback 5.78725 0.538664 -0.428912
thorax 4.86794 0.319165 -2.81427
lowerneck -18.8758 -3.47597 0.47479
upperneck 6.09814 -4.75878 -1.23996
head 4.80389 -2.46801 -0.914172
rclavicle 1.09332e-015 -5.76476e-015
rhumerus 70.9768 1.22249 -72.9709
rradius 11.6575
rwrist 41.2982
rhand -10.8433 11.3381
rfingers 7.12502
rthumb 15.1714 -18.0857
lclavicle 1.09332e-015 -5.76476e-015
lhumerus 73.7814 -10.2655 68.0834
lradius 11.1948
lwrist -39.9899
lhand -11.3329 -3.47298
lfingers 7.12502
lthumb 14.6998 25.9859
rfemur -21.3463 -7.79052 18.3835
rtibia 42.8425
rfoot -25.1109 10.1223
rtoes -18.538
lfemur -22.9316 4.71361 -18.7698
ltibia 44.8794
lfoot -19.6347 -7.40669
ltoes -12.0868
140
root 1.46347 18.8011 2.62514 -174.941 -4.2865 -180.486
lowerback 1.48804 0.787673 4.30284
upperback 5.60366 0.680976 -0.445753
thorax 5.0394 0.408915 -2.86385
lowerneck -18.6691 -3.50331 0.438558
upperneck 6.30842 -4.76891 -1.25742
head 4.83851 -2.46805 -0.913355
rclavicle 9.93923e-017 4.77083e-015
rhumerus 70.87 1.30097 -73.1553
rradius 11.3191
rwrist 41.4219
rhand -10.5959 11.2767
rfingers 7.12502
rthumb 15.4097 -18.129
lclavicle 9.93923e-017 4.77083e-015
lhumerus 73.5719 -10.1678 68.461
lradius 11.101
lwrist -40.8441
lhand -10.974 -3.51019
lfingers 7.12502
lthumb 15.0455 25.9231
rfemur -20.3935 -7.97747 18.4738
rtibia 41.0342
rfoot -24.4721 10.6164
rtoes -18.086
lfemur -21.7811 4.73222 -18.6139
ltibia 42.9146
lfoot -19.4032 -7.35368
ltoes -11.4962
141
root 1.46858 18.8754 2.58778 -174.889 -3.97209 -180.384
lowerback 0.91008 0.892109 4.39031
upperback 5.45764 0.823753 -0.466668
thorax 5.2285 0.497875 -2.9241
lowerneck -18.5521 -3.54194 0.340168
upperneck 6.55646 -4.7872 -1.21725
head 4.90166 -2.4702 -0.887946
rclavicle 5.06901e-015 1.59028e-015
rhumerus 70.8558 1.34519 -73.2838
rradius 10.9317
rwrist 41.5507
rhand -10.5207 11.2418
rfingers 7.12502
rthumb 15.4822 -18.1583
lclavicle 5.06901e-015 1.59028e-015
lhumerus 73.5468 -10.0808 68.6454
lradius 10.9378
lwrist -41.3306
lhand -10.637 -3.55828
lfingers 7.12502
lthumb 15.3702 25.8504
rfemur -19.47 -8.15296 18.5462
rtibia 39.3964
rfoot -23.9112 11.0938
rtoes -17.7973
lfemur -20.6656 4.72338 -18.4654
ltibia 41.1
lfoot -19.2306 -7.18582
ltoes -11.2192
142
root 1.47352 18.9385 2.55247 -174.847 -3.65635 -180.262
lowerback 0.348318 0.999445 4.51678
upperback 5.33125 0.965521 -0.494423
thorax 5.4316 0.587441 -3.01158
lowerneck -18.419 -3.57291 0.286043
upperneck 6.72226 -4.80769 -1.19698
head 4.93481 -2.47552 -0.874439
rclavicle 6.80837e-015 0
rhumerus 70.8603 1.3057 -73.6705
rradius 10.5915
rwrist 41.9934
rhand -10.5371 11.1798
rfingers 7.12502
rthumb 15.4664 -18.2215
lclavicle 6.80837e-015 0
lhumerus 73.727 -10.0723 68.323
lradius 10.7476
lwrist -41.0509
lhand -10.3273 -3.59498
lfingers 7.12502
lthumb 15.6685 25.7906
rfemur -18.6315 -8.39207 18.6277
rtibia 37.928
rfoot -23.3989 11.6664
rtoes -17.5818
lfemur -19.6505 4.71648 -18.3039
ltibia 39.4698
lfoot -19.0752 -7.01421
ltoes -10.6464
143
root 1.47893 18.9901 2.5192 -174.833 -3.32166 -180.156
lowerback -0.192212 1.11101 4.6144
upperback 5.24967 1.10639 -0.512861
thorax 5.6703 0.674124 -3.07141
lowerneck -18.358 -3.60135 0.215312
upperneck 6.89935 -4.823 -1.1748
head 4.98326 -2.47941 -0.85897
rclavicle 3.25013e-014 -1.23246e-014
rhumerus 70.9504 1.27106 -74.0221
rradius 10.234
rwrist 42.4489
rhand -10.726 11.1114
rfingers 7.12502
rthumb 15.2844 -18.3039
lclavicle 3.25013e-014 -1.23246e-014
lhumerus 73.9616 -10.0238 68.0298
lradius 10.6024
lwrist -40.602
lhand -9.99212 -3.62688
lfingers 7.12502
lthumb 15.9912 25.7331
rfemur -17.8516 -8.66692 18.6827
rtibia 36.6223
rfoot -22.9495 12.3236
rtoes -16.8467
lfemur -18.7041 4.70801 -18.1587
ltibia 38.0306
lfoot -18.9968 -6.8287
ltoes -10.1646
144
root 1.48394 19.0316 2.48792 -174.832 -2.99929 -180.052
lowerback -0.695024 1.22208 4.73426
upperback 5.17516 1.24491 -0.539519
thorax 5.89685 0.759997 -3.15104
lowerneck -18.2942 -3.62578 0.158662
upperneck 7.04985 -4.83696 -1.15922
head 5.02241 -2.48338 -0.847233
rclavicle -4.57205e-015 1.13307e-014
rhumerus 70.9974 1.26601 -74.2047
rradius 9.99139
rwrist 42.8608
rhand -10.926 10.9849
rfingers 7.12502
rthumb 15.0917 -18.445
lclavicle -4.57205e-015 1.13307e-014
lhumerus 74.2333 -10.006 67.6314
lradius 10.4838
lwrist -39.8898
lhand -9.7814 -3.64063
lfingers 7.12502
lthumb 16.1941 25.7029
rfemur -17.1455 -9.01825 18.7225
rtibia 35.478
rfoot -22.5909 13.1507
rtoes -15.6946
lfemur -17.8651 4.69132 -18.0279
ltibia 36.7972
lfoot -18.9695 -6.56814
ltoes -9.94993
145
root 1.4891 19.0641 2.45836 -174.856 -2.68464 -179.929
lowerback -1.15652 1.33712 4.8829
upperback 5.12642 1.38417 -0.565465
thorax 6.12956 0.846787 -3.24483
lowerneck -18.2824 -3.65335 0.0995671
upperneck 7.21271 -4.859 -1.10895
head 5.07449 -2.48908 -0.826282
rclavicle -3.27001e-014 -2.78299e-015
rhumerus 71.0516 1.26738 -74.4009
rradius 9.78302
rwrist 43.2491
rhand -11.1623 10.8652
rfingers 7.12502
rthumb 14.8642 -18.5816
lclavicle -3.27001e-014 -2.78299e-015
lhumerus 74.5908 -10.0333 66.9871
lradius 10.3958
lwrist -38.8474
lhand -9.58929 -3.57687
lfingers 7.12502
lthumb 16.3791 25.7515
rfemur -16.5071 -9.50215 18.7775
rtibia 34.4946
rfoot -22.3424 14.0849
rtoes -14.7963
lfemur -17.1103 4.69689 -17.874
ltibia 35.7598
lfoot -18.9789 -6.32402
ltoes -9.64286
146
root 1.49496 19.0894 2.43037 -174.895 -2.36278 -179.788
lowerback -1.57467 1.44145 5.02317
upperback 5.07408 1.50772 -0.560503
thorax 6.33188 0.923333 -3.30186
lowerneck -18.101 -3.66369 0.0450696
upperneck 7.19145 -4.85881 -1.10105
head 5.04086 -2.48894 -0.811
rclavicle 1.00883e-014 -4.77083e-015
rhumerus 71.0503 1.33367 -74.5811
rradius 9.65928
rwrist 43.6807
rhand -11.3442 10.7393
rfingers 7.12502
rthumb 14.6889 -18.7203
lclavicle 1.00883e-014 -4.77083e-015
lhumerus 74.8579 -9.9954 66.5014
lradius 10.3617
lwrist -38.0607
lhand -9.50767 -3.51372
lfingers 7.12502
lthumb 16.4577 25.8082
rfemur -15.9434 -10.1116 18.847
rtibia 33.6621
rfoot -22.1816 15.0978
rtoes -14.5135
lfemur -16.4378 4.75577 -17.6971
ltibia 34.9049
lfoot -19.0666 -6.11146
ltoes -9.61054
147
root 1.50074 19.1075 2.40496 -174.925 -2.06886 -179.647
lowerback -1.97928 1.5446 5.18898
upperback 5.03878 1.62669 -0.576264
thorax 6.547 0.999495 -3.39408
lowerneck -17.9658 -3.68154 0.0267678
upperneck 7.17954 -4.87811 -1.08716
head 5.01653 -2.49697 -0.802453
rclavicle -1.63003e-014 -1.39149e-014
rhumerus 71.2563 1.32051 -74.7711
rradius 9.39901
rwrist 44.1109
rhand -11.4614 10.6688
rfingers 7.12502
rthumb 14.5759 -18.7991
lclavicle -1.63003e-014 -1.39149e-014
lhumerus 75.1314 -9.92817 66.1417
lradius 10.3516
lwrist -37.588
lhand -9.43478 -3.47972
lfingers 7.12502
lthumb 16.5279 25.8364
rfemur -15.467 -10.8382 18.9104
rtibia 32.9705
rfoot -22.0214 16.2171
rtoes -14.1571
lfemur -15.8946 4.96434 -17.5214
ltibia 34.2226
lfoot -19.1628 -6.03188
ltoes -9.59344
